<svg xmlns="http://www.w3.org/2000/svg" viewBox="0 0 400 120" width="400" height="120" fill="none">
  <title>Limbo de astrolábio</title>
  <path d="M35.46 135A190 190 0 0 1 364.54 135" stroke="#EDEEEA" stroke-width="1.1"/>
  <path d="M54.51 146A168 168 0 0 1 345.49 146" stroke="#6E89B4" stroke-width=".6"/>
  <path d="M35.46 135 45.85 141" stroke="#EDEEEA" stroke-width="1.1"/>
  <path d="M0 0.11L0 0.11Q-0.59 0.11 -1.03 -0.11Q-1.47 -0.33 -1.75 -0.75Q-2.03 -1.16 -2.17 -1.76Q-2.3 -2.37 -2.3 -3.14L-2.3 -3.14Q-2.3 -3.91 -2.17 -4.51Q-2.03 -5.12 -1.75 -5.54Q-1.47 -5.95 -1.03 -6.17Q-0.59 -6.39 0 -6.39L0 -6.39Q0.59 -6.39 1.03 -6.17Q1.47 -5.95 1.75 -5.54Q2.03 -5.12 2.17 -4.51Q2.3 -3.91 2.3 -3.14L2.3 -3.14Q2.3 -2.37 2.17 -1.76Q2.03 -1.16 1.75 -0.75Q1.47 -0.33 1.03 -0.11Q0.59 0.11 0 0.11M0 -0.72L0 -0.72Q0.68 -0.72 0.98 -1.23Q1.27 -1.74 1.27 -2.6L1.27 -2.6L1.27 -3.68Q1.27 -4.55 0.98 -5.05Q0.68 -5.56 0 -5.56L0 -5.56Q-0.34 -5.56 -0.58 -5.43Q-0.83 -5.3 -0.98 -5.05Q-1.13 -4.81 -1.2 -4.46Q-1.27 -4.11 -1.27 -3.68L-1.27 -3.68L-1.27 -2.6Q-1.27 -2.17 -1.2 -1.82Q-1.13 -1.48 -0.98 -1.23Q-0.83 -0.98 -0.58 -0.85Q-0.34 -0.72 0 -0.72M0 -2.61L0 -2.61Q-0.31 -2.61 -0.44 -2.74Q-0.56 -2.86 -0.56 -3.04L-0.56 -3.04L-0.56 -3.24Q-0.56 -3.42 -0.44 -3.55Q-0.31 -3.67 0 -3.67L0 -3.67Q0.32 -3.67 0.44 -3.55Q0.56 -3.42 0.56 -3.24L0.56 -3.24L0.56 -3.04Q0.56 -2.86 0.44 -2.74Q0.32 -2.61 0 -2.61" transform="translate(26.79 130) rotate(-60) translate(0 3)" fill="#EDEEEA"/>
  <path d="M38.87 129.32 42.69 131.7" stroke="#EDEEEA" stroke-width="0.7"/>
  <path d="M42.48 123.75 46.21 126.27" stroke="#EDEEEA" stroke-width="0.7"/>
  <path d="M46.29 118.32 49.93 120.97" stroke="#EDEEEA" stroke-width="0.7"/>
  <path d="M50.28 113.02 53.82 115.79" stroke="#EDEEEA" stroke-width="0.7"/>
  <path d="M54.45 107.87 63.64 115.58" stroke="#EDEEEA" stroke-width="1.1"/>
  <path d="M58.8 102.87 62.15 105.88" stroke="#EDEEEA" stroke-width="0.7"/>
  <path d="M63.33 98.01 66.56 101.14" stroke="#EDEEEA" stroke-width="0.7"/>
  <path d="M68.01 93.33 71.14 96.56" stroke="#EDEEEA" stroke-width="0.7"/>
  <path d="M72.87 88.8 75.88 92.15" stroke="#EDEEEA" stroke-width="0.7"/>
  <path d="M77.87 84.45 85.58 93.64" stroke="#EDEEEA" stroke-width="1.1"/>
  <path d="M-0.49 -0.86L-0.49 0L-4.83 0L-4.83 -0.96L-2.78 -2.75Q-2.29 -3.19 -2.03 -3.57Q-1.76 -3.96 -1.76 -4.39L-1.76 -4.39L-1.76 -4.49Q-1.76 -4.99 -2.03 -5.25Q-2.3 -5.52 -2.82 -5.52L-2.82 -5.52Q-3.34 -5.52 -3.62 -5.24Q-3.91 -4.96 -4.03 -4.53L-4.03 -4.53L-4.91 -4.86Q-4.82 -5.16 -4.65 -5.43Q-4.48 -5.71 -4.22 -5.92Q-3.95 -6.14 -3.59 -6.26Q-3.22 -6.39 -2.74 -6.39L-2.74 -6.39Q-2.26 -6.39 -1.88 -6.25Q-1.49 -6.11 -1.23 -5.87Q-0.97 -5.63 -0.84 -5.29Q-0.7 -4.95 -0.7 -4.55L-0.7 -4.55Q-0.7 -4.17 -0.81 -3.85Q-0.93 -3.53 -1.13 -3.24Q-1.33 -2.94 -1.61 -2.67Q-1.89 -2.4 -2.22 -2.13L-2.22 -2.13L-3.74 -0.86L-0.49 -0.86M2.7 0.11L2.7 0.11Q2.11 0.11 1.67 -0.11Q1.23 -0.33 0.95 -0.75Q0.67 -1.16 0.53 -1.76Q0.4 -2.37 0.4 -3.14L0.4 -3.14Q0.4 -3.91 0.53 -4.51Q0.67 -5.12 0.95 -5.54Q1.23 -5.95 1.67 -6.17Q2.11 -6.39 2.7 -6.39L2.7 -6.39Q3.29 -6.39 3.73 -6.17Q4.17 -5.95 4.45 -5.54Q4.73 -5.12 4.87 -4.51Q5 -3.91 5 -3.14L5 -3.14Q5 -2.37 4.87 -1.76Q4.73 -1.16 4.45 -0.75Q4.17 -0.33 3.73 -0.11Q3.29 0.11 2.7 0.11M2.7 -0.72L2.7 -0.72Q3.38 -0.72 3.68 -1.23Q3.97 -1.74 3.97 -2.6L3.97 -2.6L3.97 -3.68Q3.97 -4.55 3.68 -5.05Q3.38 -5.56 2.7 -5.56L2.7 -5.56Q2.36 -5.56 2.12 -5.43Q1.87 -5.3 1.72 -5.05Q1.57 -4.81 1.5 -4.46Q1.43 -4.11 1.43 -3.68L1.43 -3.68L1.43 -2.6Q1.43 -2.17 1.5 -1.82Q1.57 -1.48 1.72 -1.23Q1.87 -0.98 2.12 -0.85Q2.36 -0.72 2.7 -0.72M2.7 -2.61L2.7 -2.61Q2.39 -2.61 2.26 -2.74Q2.14 -2.86 2.14 -3.04L2.14 -3.04L2.14 -3.24Q2.14 -3.42 2.26 -3.55Q2.39 -3.67 2.7 -3.67L2.7 -3.67Q3.02 -3.67 3.14 -3.55Q3.26 -3.42 3.26 -3.24L3.26 -3.24L3.26 -3.04Q3.26 -2.86 3.14 -2.74Q3.02 -2.61 2.7 -2.61" transform="translate(71.44 76.79) rotate(-40) translate(0 3)" fill="#EDEEEA"/>
  <path d="M83.02 80.28 85.79 83.82" stroke="#EDEEEA" stroke-width="0.7"/>
  <path d="M88.32 76.29 90.97 79.93" stroke="#EDEEEA" stroke-width="0.7"/>
  <path d="M93.75 72.48 96.27 76.21" stroke="#EDEEEA" stroke-width="0.7"/>
  <path d="M99.32 68.87 101.7 72.69" stroke="#EDEEEA" stroke-width="0.7"/>
  <path d="M105 65.46 111 75.85" stroke="#EDEEEA" stroke-width="1.1"/>
  <path d="M110.8 62.24 112.91 66.21" stroke="#EDEEEA" stroke-width="0.7"/>
  <path d="M116.71 59.23 118.68 63.27" stroke="#EDEEEA" stroke-width="0.7"/>
  <path d="M122.72 56.43 124.55 60.54" stroke="#EDEEEA" stroke-width="0.7"/>
  <path d="M128.82 53.84 130.51 58.01" stroke="#EDEEEA" stroke-width="0.7"/>
  <path d="M135.02 51.46 139.12 62.73" stroke="#EDEEEA" stroke-width="1.1"/>
  <path d="M-1.18 0L-2.14 0L-2.14 -1.22L-5.13 -1.22L-5.13 -2.09L-2.5 -6.28L-1.18 -6.28L-1.18 -2.02L-0.3 -2.02L-0.3 -1.22L-1.18 -1.22L-1.18 0M-2.2 -5.35L-4.27 -2.02L-2.14 -2.02L-2.14 -5.35L-2.2 -5.35M2.7 0.11L2.7 0.11Q2.11 0.11 1.67 -0.11Q1.23 -0.33 0.95 -0.75Q0.67 -1.16 0.53 -1.76Q0.4 -2.37 0.4 -3.14L0.4 -3.14Q0.4 -3.91 0.53 -4.51Q0.67 -5.12 0.95 -5.54Q1.23 -5.95 1.67 -6.17Q2.11 -6.39 2.7 -6.39L2.7 -6.39Q3.29 -6.39 3.73 -6.17Q4.17 -5.95 4.45 -5.54Q4.73 -5.12 4.87 -4.51Q5 -3.91 5 -3.14L5 -3.14Q5 -2.37 4.87 -1.76Q4.73 -1.16 4.45 -0.75Q4.17 -0.33 3.73 -0.11Q3.29 0.11 2.7 0.11M2.7 -0.72L2.7 -0.72Q3.38 -0.72 3.68 -1.23Q3.97 -1.74 3.97 -2.6L3.97 -2.6L3.97 -3.68Q3.97 -4.55 3.68 -5.05Q3.38 -5.56 2.7 -5.56L2.7 -5.56Q2.36 -5.56 2.12 -5.43Q1.87 -5.3 1.72 -5.05Q1.57 -4.81 1.5 -4.46Q1.43 -4.11 1.43 -3.68L1.43 -3.68L1.43 -2.6Q1.43 -2.17 1.5 -1.82Q1.57 -1.48 1.72 -1.23Q1.87 -0.98 2.12 -0.85Q2.36 -0.72 2.7 -0.72M2.7 -2.61L2.7 -2.61Q2.39 -2.61 2.26 -2.74Q2.14 -2.86 2.14 -3.04L2.14 -3.04L2.14 -3.24Q2.14 -3.42 2.26 -3.55Q2.39 -3.67 2.7 -3.67L2.7 -3.67Q3.02 -3.67 3.14 -3.55Q3.26 -3.42 3.26 -3.24L3.26 -3.24L3.26 -3.04Q3.26 -2.86 3.14 -2.74Q3.02 -2.61 2.7 -2.61" transform="translate(131.6 42.06) rotate(-20) translate(0 3)" fill="#EDEEEA"/>
  <path d="M141.29 49.3 142.68 53.58" stroke="#EDEEEA" stroke-width="0.7"/>
  <path d="M147.63 47.36 148.87 51.69" stroke="#EDEEEA" stroke-width="0.7"/>
  <path d="M154.03 45.64 155.12 50.01" stroke="#EDEEEA" stroke-width="0.7"/>
  <path d="M160.5 44.15 161.43 48.55" stroke="#EDEEEA" stroke-width="0.7"/>
  <path d="M167.01 42.89 169.09 54.7" stroke="#EDEEEA" stroke-width="1.1"/>
  <path d="M173.56 41.85 174.18 46.31" stroke="#EDEEEA" stroke-width="0.7"/>
  <path d="M180.14 41.04 180.61 45.52" stroke="#EDEEEA" stroke-width="0.7"/>
  <path d="M186.75 40.46 187.06 44.95" stroke="#EDEEEA" stroke-width="0.7"/>
  <path d="M193.37 40.12 193.53 44.61" stroke="#EDEEEA" stroke-width="0.7"/>
  <path d="M200 40 200 52" stroke="#EDEEEA" stroke-width="1.1"/>
  <path d="M-2.68 0.11L-2.68 0.11Q-3.21 0.11 -3.63 -0.06Q-4.04 -0.23 -4.33 -0.55Q-4.62 -0.87 -4.77 -1.32Q-4.92 -1.77 -4.92 -2.34L-4.92 -2.34Q-4.92 -3.02 -4.72 -3.63Q-4.51 -4.23 -4.18 -4.73Q-3.84 -5.24 -3.44 -5.63Q-3.03 -6.02 -2.64 -6.28L-2.64 -6.28L-1.29 -6.28Q-1.83 -5.89 -2.26 -5.54Q-2.69 -5.18 -3.01 -4.8Q-3.33 -4.42 -3.55 -4Q-3.76 -3.58 -3.88 -3.07L-3.88 -3.07L-3.82 -3.05Q-3.72 -3.24 -3.58 -3.41Q-3.45 -3.57 -3.27 -3.7Q-3.09 -3.83 -2.85 -3.9Q-2.62 -3.97 -2.32 -3.97L-2.32 -3.97Q-1.92 -3.97 -1.57 -3.83Q-1.23 -3.7 -0.98 -3.44Q-0.73 -3.19 -0.59 -2.83Q-0.45 -2.47 -0.45 -2.02L-0.45 -2.02Q-0.45 -1.55 -0.61 -1.16Q-0.76 -0.77 -1.06 -0.49Q-1.35 -0.21 -1.76 -0.05Q-2.18 0.11 -2.68 0.11M-2.69 -0.7L-2.69 -0.7Q-2.11 -0.7 -1.8 -1.01Q-1.48 -1.32 -1.48 -1.89L-1.48 -1.89L-1.48 -1.98Q-1.48 -2.55 -1.8 -2.86Q-2.11 -3.17 -2.69 -3.17L-2.69 -3.17Q-3.26 -3.17 -3.57 -2.86Q-3.89 -2.55 -3.89 -1.98L-3.89 -1.98L-3.89 -1.89Q-3.89 -1.32 -3.57 -1.01Q-3.26 -0.7 -2.69 -0.7M2.7 0.11L2.7 0.11Q2.11 0.11 1.67 -0.11Q1.23 -0.33 0.95 -0.75Q0.67 -1.16 0.53 -1.76Q0.4 -2.37 0.4 -3.14L0.4 -3.14Q0.4 -3.91 0.53 -4.51Q0.67 -5.12 0.95 -5.54Q1.23 -5.95 1.67 -6.17Q2.11 -6.39 2.7 -6.39L2.7 -6.39Q3.29 -6.39 3.73 -6.17Q4.17 -5.95 4.45 -5.54Q4.73 -5.12 4.87 -4.51Q5 -3.91 5 -3.14L5 -3.14Q5 -2.37 4.87 -1.76Q4.73 -1.16 4.45 -0.75Q4.17 -0.33 3.73 -0.11Q3.29 0.11 2.7 0.11M2.7 -0.72L2.7 -0.72Q3.38 -0.72 3.68 -1.23Q3.97 -1.74 3.97 -2.6L3.97 -2.6L3.97 -3.68Q3.97 -4.55 3.68 -5.05Q3.38 -5.56 2.7 -5.56L2.7 -5.56Q2.36 -5.56 2.12 -5.43Q1.87 -5.3 1.72 -5.05Q1.57 -4.81 1.5 -4.46Q1.43 -4.11 1.43 -3.68L1.43 -3.68L1.43 -2.6Q1.43 -2.17 1.5 -1.82Q1.57 -1.48 1.72 -1.23Q1.87 -0.98 2.12 -0.85Q2.36 -0.72 2.7 -0.72M2.7 -2.61L2.7 -2.61Q2.39 -2.61 2.26 -2.74Q2.14 -2.86 2.14 -3.04L2.14 -3.04L2.14 -3.24Q2.14 -3.42 2.26 -3.55Q2.39 -3.67 2.7 -3.67L2.7 -3.67Q3.02 -3.67 3.14 -3.55Q3.26 -3.42 3.26 -3.24L3.26 -3.24L3.26 -3.04Q3.26 -2.86 3.14 -2.74Q3.02 -2.61 2.7 -2.61" transform="translate(200 30) rotate(0) translate(0 3)" fill="#EDEEEA"/>
  <path d="M206.63 40.12 206.47 44.61" stroke="#EDEEEA" stroke-width="0.7"/>
  <path d="M213.25 40.46 212.94 44.95" stroke="#EDEEEA" stroke-width="0.7"/>
  <path d="M219.86 41.04 219.39 45.52" stroke="#EDEEEA" stroke-width="0.7"/>
  <path d="M226.44 41.85 225.82 46.31" stroke="#EDEEEA" stroke-width="0.7"/>
  <path d="M232.99 42.89 230.91 54.7" stroke="#EDEEEA" stroke-width="1.1"/>
  <path d="M239.5 44.15 238.57 48.55" stroke="#EDEEEA" stroke-width="0.7"/>
  <path d="M245.97 45.64 244.88 50.01" stroke="#EDEEEA" stroke-width="0.7"/>
  <path d="M252.37 47.36 251.13 51.69" stroke="#EDEEEA" stroke-width="0.7"/>
  <path d="M258.71 49.3 257.32 53.58" stroke="#EDEEEA" stroke-width="0.7"/>
  <path d="M264.98 51.46 260.88 62.73" stroke="#EDEEEA" stroke-width="1.1"/>
  <path d="M-2.7 0.11L-2.7 0.11Q-3.26 0.11 -3.68 -0.03Q-4.1 -0.17 -4.39 -0.41Q-4.68 -0.66 -4.83 -0.99Q-4.98 -1.32 -4.98 -1.72L-4.98 -1.72Q-4.98 -2.35 -4.63 -2.73Q-4.27 -3.11 -3.71 -3.26L-3.71 -3.26L-3.71 -3.33Q-4.19 -3.5 -4.49 -3.87Q-4.79 -4.24 -4.79 -4.78L-4.79 -4.78Q-4.79 -5.51 -4.24 -5.95Q-3.7 -6.39 -2.7 -6.39L-2.7 -6.39Q-1.7 -6.39 -1.16 -5.95Q-0.61 -5.51 -0.61 -4.78L-0.61 -4.78Q-0.61 -4.24 -0.91 -3.87Q-1.21 -3.5 -1.69 -3.33L-1.69 -3.33L-1.69 -3.26Q-1.12 -3.11 -0.77 -2.73Q-0.42 -2.35 -0.42 -1.72L-0.42 -1.72Q-0.42 -1.32 -0.57 -0.99Q-0.72 -0.66 -1.01 -0.41Q-1.3 -0.17 -1.72 -0.03Q-2.14 0.11 -2.7 0.11M-2.7 -0.69L-2.7 -0.69Q-2.11 -0.69 -1.79 -0.95Q-1.47 -1.22 -1.47 -1.69L-1.47 -1.69L-1.47 -1.88Q-1.47 -2.36 -1.79 -2.62Q-2.11 -2.88 -2.7 -2.88L-2.7 -2.88Q-3.29 -2.88 -3.61 -2.62Q-3.93 -2.36 -3.93 -1.88L-3.93 -1.88L-3.93 -1.69Q-3.93 -1.22 -3.61 -0.95Q-3.29 -0.69 -2.7 -0.69M-2.7 -3.65L-2.7 -3.65Q-2.16 -3.65 -1.88 -3.89Q-1.59 -4.13 -1.59 -4.56L-1.59 -4.56L-1.59 -4.68Q-1.59 -5.11 -1.88 -5.35Q-2.16 -5.59 -2.7 -5.59L-2.7 -5.59Q-3.24 -5.59 -3.52 -5.35Q-3.81 -5.11 -3.81 -4.68L-3.81 -4.68L-3.81 -4.56Q-3.81 -4.13 -3.52 -3.89Q-3.24 -3.65 -2.7 -3.65M2.7 0.11L2.7 0.11Q2.11 0.11 1.67 -0.11Q1.23 -0.33 0.95 -0.75Q0.67 -1.16 0.53 -1.76Q0.4 -2.37 0.4 -3.14L0.4 -3.14Q0.4 -3.91 0.53 -4.51Q0.67 -5.12 0.95 -5.54Q1.23 -5.95 1.67 -6.17Q2.11 -6.39 2.7 -6.39L2.7 -6.39Q3.29 -6.39 3.73 -6.17Q4.17 -5.95 4.45 -5.54Q4.73 -5.12 4.87 -4.51Q5 -3.91 5 -3.14L5 -3.14Q5 -2.37 4.87 -1.76Q4.73 -1.16 4.45 -0.75Q4.17 -0.33 3.73 -0.11Q3.29 0.11 2.7 0.11M2.7 -0.72L2.7 -0.72Q3.38 -0.72 3.68 -1.23Q3.97 -1.74 3.97 -2.6L3.97 -2.6L3.97 -3.68Q3.97 -4.55 3.68 -5.05Q3.38 -5.56 2.7 -5.56L2.7 -5.56Q2.36 -5.56 2.12 -5.43Q1.87 -5.3 1.72 -5.05Q1.57 -4.81 1.5 -4.46Q1.43 -4.11 1.43 -3.68L1.43 -3.68L1.43 -2.6Q1.43 -2.17 1.5 -1.82Q1.57 -1.48 1.72 -1.23Q1.87 -0.98 2.12 -0.85Q2.36 -0.72 2.7 -0.72M2.7 -2.61L2.7 -2.61Q2.39 -2.61 2.26 -2.74Q2.14 -2.86 2.14 -3.04L2.14 -3.04L2.14 -3.24Q2.14 -3.42 2.26 -3.55Q2.39 -3.67 2.7 -3.67L2.7 -3.67Q3.02 -3.67 3.14 -3.55Q3.26 -3.42 3.26 -3.24L3.26 -3.24L3.26 -3.04Q3.26 -2.86 3.14 -2.74Q3.02 -2.61 2.7 -2.61" transform="translate(268.4 42.06) rotate(20) translate(0 3)" fill="#EDEEEA"/>
  <path d="M271.18 53.84 269.49 58.01" stroke="#EDEEEA" stroke-width="0.7"/>
  <path d="M277.28 56.43 275.45 60.54" stroke="#EDEEEA" stroke-width="0.7"/>
  <path d="M283.29 59.23 281.32 63.27" stroke="#EDEEEA" stroke-width="0.7"/>
  <path d="M289.2 62.24 287.09 66.21" stroke="#EDEEEA" stroke-width="0.7"/>
  <path d="M295 65.46 289 75.85" stroke="#EDEEEA" stroke-width="1.1"/>
  <path d="M300.68 68.87 298.3 72.69" stroke="#EDEEEA" stroke-width="0.7"/>
  <path d="M306.25 72.48 303.73 76.21" stroke="#EDEEEA" stroke-width="0.7"/>
  <path d="M311.68 76.29 309.03 79.93" stroke="#EDEEEA" stroke-width="0.7"/>
  <path d="M316.98 80.28 314.21 83.82" stroke="#EDEEEA" stroke-width="0.7"/>
  <path d="M322.13 84.45 314.42 93.64" stroke="#EDEEEA" stroke-width="1.1"/>
  <path d="M-3.01 0L-7.31 0L-7.31 -0.84L-5.54 -0.84L-5.54 -5.54L-5.62 -5.54L-7.07 -3.99L-7.69 -4.55L-6.09 -6.28L-4.54 -6.28L-4.54 -0.84L-3.01 -0.84L-3.01 0M0 0.11L0 0.11Q-0.59 0.11 -1.03 -0.11Q-1.47 -0.33 -1.75 -0.75Q-2.03 -1.16 -2.17 -1.76Q-2.3 -2.37 -2.3 -3.14L-2.3 -3.14Q-2.3 -3.91 -2.17 -4.51Q-2.03 -5.12 -1.75 -5.54Q-1.47 -5.95 -1.03 -6.17Q-0.59 -6.39 0 -6.39L0 -6.39Q0.59 -6.39 1.03 -6.17Q1.47 -5.95 1.75 -5.54Q2.03 -5.12 2.17 -4.51Q2.3 -3.91 2.3 -3.14L2.3 -3.14Q2.3 -2.37 2.17 -1.76Q2.03 -1.16 1.75 -0.75Q1.47 -0.33 1.03 -0.11Q0.59 0.11 0 0.11M0 -0.72L0 -0.72Q0.68 -0.72 0.98 -1.23Q1.27 -1.74 1.27 -2.6L1.27 -2.6L1.27 -3.68Q1.27 -4.55 0.98 -5.05Q0.68 -5.56 0 -5.56L0 -5.56Q-0.34 -5.56 -0.58 -5.43Q-0.83 -5.3 -0.98 -5.05Q-1.13 -4.81 -1.2 -4.46Q-1.27 -4.11 -1.27 -3.68L-1.27 -3.68L-1.27 -2.6Q-1.27 -2.17 -1.2 -1.82Q-1.13 -1.48 -0.98 -1.23Q-0.83 -0.98 -0.58 -0.85Q-0.34 -0.72 0 -0.72M0 -2.61L0 -2.61Q-0.31 -2.61 -0.44 -2.74Q-0.56 -2.86 -0.56 -3.04L-0.56 -3.04L-0.56 -3.24Q-0.56 -3.42 -0.44 -3.55Q-0.31 -3.67 0 -3.67L0 -3.67Q0.32 -3.67 0.44 -3.55Q0.56 -3.42 0.56 -3.24L0.56 -3.24L0.56 -3.04Q0.56 -2.86 0.44 -2.74Q0.32 -2.61 0 -2.61M5.4 0.11L5.4 0.11Q4.81 0.11 4.37 -0.11Q3.93 -0.33 3.65 -0.75Q3.37 -1.16 3.23 -1.76Q3.1 -2.37 3.1 -3.14L3.1 -3.14Q3.1 -3.91 3.23 -4.51Q3.37 -5.12 3.65 -5.54Q3.93 -5.95 4.37 -6.17Q4.81 -6.39 5.4 -6.39L5.4 -6.39Q5.99 -6.39 6.43 -6.17Q6.87 -5.95 7.15 -5.54Q7.43 -5.12 7.57 -4.51Q7.7 -3.91 7.7 -3.14L7.7 -3.14Q7.7 -2.37 7.57 -1.76Q7.43 -1.16 7.15 -0.75Q6.87 -0.33 6.43 -0.11Q5.99 0.11 5.4 0.11M5.4 -0.72L5.4 -0.72Q6.08 -0.72 6.38 -1.23Q6.67 -1.74 6.67 -2.6L6.67 -2.6L6.67 -3.68Q6.67 -4.55 6.38 -5.05Q6.08 -5.56 5.4 -5.56L5.4 -5.56Q5.06 -5.56 4.81 -5.43Q4.57 -5.3 4.42 -5.05Q4.27 -4.81 4.2 -4.46Q4.13 -4.11 4.13 -3.68L4.13 -3.68L4.13 -2.6Q4.13 -2.17 4.2 -1.82Q4.27 -1.48 4.42 -1.23Q4.57 -0.98 4.81 -0.85Q5.06 -0.72 5.4 -0.72M5.4 -2.61L5.4 -2.61Q5.08 -2.61 4.96 -2.74Q4.84 -2.86 4.84 -3.04L4.84 -3.04L4.84 -3.24Q4.84 -3.42 4.96 -3.55Q5.08 -3.67 5.4 -3.67L5.4 -3.67Q5.72 -3.67 5.84 -3.55Q5.96 -3.42 5.96 -3.24L5.96 -3.24L5.96 -3.04Q5.96 -2.86 5.84 -2.74Q5.72 -2.61 5.4 -2.61" transform="translate(328.56 76.79) rotate(40) translate(0 3)" fill="#EDEEEA"/>
  <path d="M327.13 88.8 324.12 92.15" stroke="#EDEEEA" stroke-width="0.7"/>
  <path d="M331.99 93.33 328.86 96.56" stroke="#EDEEEA" stroke-width="0.7"/>
  <path d="M336.67 98.01 333.44 101.14" stroke="#EDEEEA" stroke-width="0.7"/>
  <path d="M341.2 102.87 337.85 105.88" stroke="#EDEEEA" stroke-width="0.7"/>
  <path d="M345.55 107.87 336.36 115.58" stroke="#EDEEEA" stroke-width="1.1"/>
  <path d="M349.72 113.02 346.18 115.79" stroke="#EDEEEA" stroke-width="0.7"/>
  <path d="M353.71 118.32 350.07 120.97" stroke="#EDEEEA" stroke-width="0.7"/>
  <path d="M357.52 123.75 353.79 126.27" stroke="#EDEEEA" stroke-width="0.7"/>
  <path d="M361.13 129.32 357.31 131.7" stroke="#EDEEEA" stroke-width="0.7"/>
  <path d="M364.54 135 354.15 141" stroke="#EDEEEA" stroke-width="1.1"/>
  <path d="M-3.01 0L-7.31 0L-7.31 -0.84L-5.54 -0.84L-5.54 -5.54L-5.62 -5.54L-7.07 -3.99L-7.69 -4.55L-6.09 -6.28L-4.54 -6.28L-4.54 -0.84L-3.01 -0.84L-3.01 0M2.21 -0.86L2.21 0L-2.13 0L-2.13 -0.96L-0.08 -2.75Q0.41 -3.19 0.67 -3.57Q0.94 -3.96 0.94 -4.39L0.94 -4.39L0.94 -4.49Q0.94 -4.99 0.67 -5.25Q0.4 -5.52 -0.12 -5.52L-0.12 -5.52Q-0.64 -5.52 -0.92 -5.24Q-1.21 -4.96 -1.33 -4.53L-1.33 -4.53L-2.21 -4.86Q-2.12 -5.16 -1.95 -5.43Q-1.78 -5.71 -1.52 -5.92Q-1.25 -6.14 -0.89 -6.26Q-0.52 -6.39 -0.04 -6.39L-0.04 -6.39Q0.44 -6.39 0.82 -6.25Q1.21 -6.11 1.47 -5.87Q1.73 -5.63 1.86 -5.29Q2 -4.95 2 -4.55L2 -4.55Q2 -4.17 1.89 -3.85Q1.77 -3.53 1.57 -3.24Q1.37 -2.94 1.09 -2.67Q0.81 -2.4 0.48 -2.13L0.48 -2.13L-1.04 -0.86L2.21 -0.86M5.4 0.11L5.4 0.11Q4.81 0.11 4.37 -0.11Q3.93 -0.33 3.65 -0.75Q3.37 -1.16 3.23 -1.76Q3.1 -2.37 3.1 -3.14L3.1 -3.14Q3.1 -3.91 3.23 -4.51Q3.37 -5.12 3.65 -5.54Q3.93 -5.95 4.37 -6.17Q4.81 -6.39 5.4 -6.39L5.4 -6.39Q5.99 -6.39 6.43 -6.17Q6.87 -5.95 7.15 -5.54Q7.43 -5.12 7.57 -4.51Q7.7 -3.91 7.7 -3.14L7.7 -3.14Q7.7 -2.37 7.57 -1.76Q7.43 -1.16 7.15 -0.75Q6.87 -0.33 6.43 -0.11Q5.99 0.11 5.4 0.11M5.4 -0.72L5.4 -0.72Q6.08 -0.72 6.38 -1.23Q6.67 -1.74 6.67 -2.6L6.67 -2.6L6.67 -3.68Q6.67 -4.55 6.38 -5.05Q6.08 -5.56 5.4 -5.56L5.4 -5.56Q5.06 -5.56 4.81 -5.43Q4.57 -5.3 4.42 -5.05Q4.27 -4.81 4.2 -4.46Q4.13 -4.11 4.13 -3.68L4.13 -3.68L4.13 -2.6Q4.13 -2.17 4.2 -1.82Q4.27 -1.48 4.42 -1.23Q4.57 -0.98 4.81 -0.85Q5.06 -0.72 5.4 -0.72M5.4 -2.61L5.4 -2.61Q5.08 -2.61 4.96 -2.74Q4.84 -2.86 4.84 -3.04L4.84 -3.04L4.84 -3.24Q4.84 -3.42 4.96 -3.55Q5.08 -3.67 5.4 -3.67L5.4 -3.67Q5.72 -3.67 5.84 -3.55Q5.96 -3.42 5.96 -3.24L5.96 -3.24L5.96 -3.04Q5.96 -2.86 5.84 -2.74Q5.72 -2.61 5.4 -2.61" transform="translate(373.21 130) rotate(60) translate(0 3)" fill="#EDEEEA"/>
  <circle class="lit" cx="200" cy="74" r="5" style="fill:#F2B544;stroke:none" stroke-width="1.2"/>
</svg>
