<svg xmlns="http://www.w3.org/2000/svg" viewBox="0 0 120 120"><title>Fireflies · favicon alternativo (Laço), desenho de 16 a 31 px</title><defs></defs><g transform="translate(-1.23 2.76) scale(1.04602)"><path d="M96.8,59.99L96.78,60.84 96.75,61.66 96.69,62.5 96.61,63.33 96.52,64.16 96.4,64.99 96.27,65.8 96.12,66.62 95.94,67.44 95.75,68.25 95.54,69.05 95.31,69.85 95.07,70.65 94.8,71.44 94.52,72.22 94.22,72.99 93.9,73.76 93.57,74.52 93.22,75.27 92.85,76.01 92.46,76.75 92.06,77.47 91.64,78.19 91.2,78.89 90.75,79.58 90.29,80.27 89.8,80.94 89.31,81.6 88.79,82.25 88.27,82.88 87.73,83.51 87.17,84.12 86.61,84.72 86.03,85.3 85.43,85.87 84.83,86.43 84.21,86.97 83.58,87.5 82.94,88.01 82.28,88.51 81.62,88.99 80.94,89.46 80.26,89.91 79.56,90.35 78.86,90.77 78.15,91.17 77.43,91.56 76.7,91.92 75.96,92.28 75.21,92.61 74.46,92.93 73.7,93.23 72.94,93.51 72.17,93.78 71.39,94.03 70.61,94.26 69.83,94.47 69.04,94.66 68.24,94.84 67.45,95 66.65,95.13 65.84,95.25 65.04,95.36 64.23,95.44 63.43,95.51 62.62,95.55 61.81,95.58 61,95.59 60.19,95.58 59.39,95.56 58.58,95.51 57.78,95.45 56.98,95.37 56.18,95.27 55.38,95.15 54.59,95.01 53.8,94.86 53.01,94.69 52.23,94.5 51.46,94.29 50.69,94.06 49.93,93.82 49.17,93.56 48.42,93.29 47.67,92.99 46.94,92.68 46.21,92.36 45.49,92.02 44.77,91.66 44.07,91.28 43.38,90.89 42.69,90.49 42.02,90.07 41.35,89.63 40.7,89.18 40.05,88.71 39.42,88.23 38.8,87.74 38.19,87.23 37.59,86.71 37.01,86.18 36.44,85.63 35.88,85.08 35.34,84.51 34.8,83.92 34.29,83.33 33.78,82.72 33.29,82.11 32.82,81.48 32.36,80.84 31.91,80.2 31.48,79.54 31.06,78.87 30.66,78.2 30.28,77.52 29.91,76.83 29.56,76.13 29.23,75.42 28.91,74.71 28.6,73.99 28.32,73.26 28.05,72.53 27.8,71.79 27.56,71.05 27.34,70.31 27.14,69.56 26.96,68.8 26.79,68.04 26.64,67.28 26.51,66.52 26.4,65.75 26.3,64.99 26.22,64.22 26.16,63.45 26.12,62.68 26.09,61.91 26.09,61.13 26.09,60.36 26.12,59.6 26.17,58.83 26.23,58.06 26.31,57.3 26.4,56.54 26.52,55.78 26.65,55.03 26.79,54.27 26.96,53.53 27.14,52.79 27.34,52.05 27.55,51.32 27.78,50.59 28.03,49.87 28.29,49.16 28.57,48.45 28.87,47.75 29.18,47.06 29.51,46.37 29.85,45.69 30.2,45.03 30.58,44.37 30.96,43.72 31.36,43.08 31.78,42.45 32.2,41.82 32.65,41.21 33.1,40.61 33.57,40.03 34.05,39.45 34.55,38.88 35.05,38.33 35.57,37.79 36.1,37.26 36.64,36.74 37.2,36.24 37.76,35.75 38.33,35.27 38.92,34.8 39.51,34.35 40.12,33.92 40.73,33.5 41.35,33.09 42,32.68 42.64,32.31 43.29,31.94 43.94,31.6 44.61,31.26 45.27,30.95 45.95,30.65 46.63,30.36 47.32,30.09 48.01,29.84 48.71,29.6 49.41,29.38 50.09,29.18 50.8,28.99 51.54,28.81 52.26,28.66 52.95,28.52 53.67,28.4 54.42,28.29A7.8,7.8 0 0 1 51.69,12.93L50.65,13.15 49.6,13.4 48.53,13.69 47.49,13.99 46.48,14.3 45.45,14.65 44.41,15.02 43.41,15.42 42.41,15.83 41.42,16.27 40.45,16.73 39.48,17.21 38.53,17.71 37.59,18.23 36.66,18.77 35.75,19.34 34.85,19.92 33.96,20.53 33.11,21.14 32.25,21.78 31.4,22.44 30.58,23.12 29.77,23.82 28.97,24.54 28.19,25.27 27.43,26.02 26.69,26.79 25.96,27.57 25.26,28.37 24.57,29.19 23.9,30.02 23.25,30.86 22.62,31.72 22.01,32.59 21.42,33.47 20.85,34.37 20.31,35.28 19.78,36.2 19.27,37.13 18.79,38.08 18.33,39.03 17.89,39.99 17.47,40.96 17.07,41.94 16.7,42.93 16.35,43.93 16.02,44.93 15.71,45.94 15.43,46.96 15.17,47.98 14.94,49 14.73,50.04 14.54,51.07 14.37,52.11 14.23,53.15 14.12,54.19 14.02,55.24 13.95,56.28 13.91,57.33 13.88,58.38 13.88,59.43 13.91,60.47 13.96,61.52 14.03,62.56 14.13,63.6 14.25,64.64 14.39,65.67 14.55,66.7 14.74,67.73 14.96,68.75 15.19,69.76 15.45,70.77 15.73,71.77 16.03,72.76 16.36,73.75 16.71,74.73 17.08,75.7 17.47,76.66 17.88,77.61 18.31,78.55 18.77,79.48 19.24,80.4 19.74,81.31 20.25,82.2 20.79,83.09 21.34,83.96 21.92,84.81 22.51,85.66 23.12,86.49 23.75,87.3 24.4,88.1 25.07,88.89 25.75,89.66 26.45,90.41 27.17,91.15 27.9,91.87 28.65,92.57 29.41,93.25 30.19,93.92 30.98,94.57 31.79,95.2 32.61,95.81 33.44,96.4 34.29,96.98 35.15,97.53 36.02,98.07 36.9,98.58 37.79,99.07 38.7,99.55 39.61,100 40.53,100.43 41.47,100.84 42.41,101.23 43.35,101.59 44.31,101.94 45.27,102.26 46.24,102.56 47.22,102.84 48.2,103.1 49.19,103.33 50.18,103.55 51.17,103.74 52.17,103.9 53.17,104.05 54.18,104.17 55.18,104.27 56.19,104.34 57.2,104.39 58.21,104.42 59.22,104.43 60.23,104.42 61.23,104.38 62.24,104.32 63.24,104.23 64.24,104.13 65.24,104 66.23,103.84 67.22,103.67 68.21,103.47 69.19,103.26 70.16,103.02 71.13,102.75 72.09,102.47 73.05,102.17 73.99,101.84 74.93,101.49 75.86,101.12 76.78,100.73 77.69,100.32 78.59,99.89 79.49,99.44 80.37,98.97 81.24,98.48 82.09,97.97 82.94,97.45 83.77,96.9 84.59,96.33 85.4,95.75 86.19,95.15 86.97,94.53 87.73,93.9 88.48,93.24 89.22,92.57 89.94,91.89 90.64,91.19 91.33,90.47 92,89.74 92.65,89 93.28,88.24 93.9,87.46 94.5,86.67 95.09,85.87 95.65,85.06 96.19,84.24 96.72,83.4 97.23,82.55 97.71,81.69 98.18,80.82 98.63,79.94 99.06,79.06 99.47,78.16 99.85,77.25 100.22,76.34 100.57,75.42 100.89,74.49 101.19,73.55 101.48,72.61 101.74,71.66 101.98,70.71 102.2,69.75 102.39,68.78 102.57,67.82 102.72,66.85 102.86,65.87 102.97,64.9 103.06,63.92 103.12,62.95 103.17,61.97 103.2,60.98 103.2,60.01A3.2,3.2 0 0 1 96.8,59.99Z" fill="#F2B544"/><circle cx="53.05" cy="20.61" r="15.600000000000001" fill="#F2B544"/></g></svg>