<svg xmlns="http://www.w3.org/2000/svg" viewBox="0 0 240 240" width="240" height="240" fill="none">
  <title>Selo graduado</title>
  <circle cx="120" cy="120" r="112" stroke="#17183A" stroke-width="1.4"/>
  <circle cx="120" cy="120" r="104" stroke="#17183A" stroke-width=".6"/>
  <path d="M120 16 120 24" stroke="#17183A" stroke-width="1"/>
  <path d="M124.54 16.1 124.41 19.1" stroke="#17183A" stroke-width="0.6"/>
  <path d="M129.06 16.4 128.8 19.38" stroke="#17183A" stroke-width="0.6"/>
  <path d="M133.57 16.89 133.18 19.86" stroke="#17183A" stroke-width="0.6"/>
  <path d="M138.06 17.58 137.1 23" stroke="#17183A" stroke-width="0.6"/>
  <path d="M142.51 18.47 141.86 21.39" stroke="#17183A" stroke-width="0.6"/>
  <path d="M146.92 19.54 146.14 22.44" stroke="#17183A" stroke-width="0.6"/>
  <path d="M151.27 20.81 150.37 23.67" stroke="#17183A" stroke-width="0.6"/>
  <path d="M155.57 22.27 153.69 27.44" stroke="#17183A" stroke-width="0.6"/>
  <path d="M159.8 23.92 158.65 26.69" stroke="#17183A" stroke-width="0.6"/>
  <path d="M163.95 25.74 162.68 28.46" stroke="#17183A" stroke-width="0.6"/>
  <path d="M168.02 27.75 166.64 30.41" stroke="#17183A" stroke-width="0.6"/>
  <path d="M172 29.93 168 36.86" stroke="#17183A" stroke-width="1"/>
  <path d="M175.88 32.29 174.27 34.82" stroke="#17183A" stroke-width="0.6"/>
  <path d="M179.65 34.81 177.93 37.27" stroke="#17183A" stroke-width="0.6"/>
  <path d="M183.31 37.49 181.48 39.87" stroke="#17183A" stroke-width="0.6"/>
  <path d="M186.85 40.33 183.31 44.54" stroke="#17183A" stroke-width="0.6"/>
  <path d="M190.26 43.32 188.23 45.53" stroke="#17183A" stroke-width="0.6"/>
  <path d="M193.54 46.46 191.42 48.58" stroke="#17183A" stroke-width="0.6"/>
  <path d="M196.68 49.74 194.47 51.77" stroke="#17183A" stroke-width="0.6"/>
  <path d="M199.67 53.15 195.46 56.69" stroke="#17183A" stroke-width="0.6"/>
  <path d="M202.51 56.69 200.13 58.52" stroke="#17183A" stroke-width="0.6"/>
  <path d="M205.19 60.35 202.73 62.07" stroke="#17183A" stroke-width="0.6"/>
  <path d="M207.71 64.12 205.18 65.73" stroke="#17183A" stroke-width="0.6"/>
  <path d="M210.07 68 203.14 72" stroke="#17183A" stroke-width="1"/>
  <path d="M212.25 71.98 209.59 73.36" stroke="#17183A" stroke-width="0.6"/>
  <path d="M214.26 76.05 211.54 77.32" stroke="#17183A" stroke-width="0.6"/>
  <path d="M216.08 80.2 213.31 81.35" stroke="#17183A" stroke-width="0.6"/>
  <path d="M217.73 84.43 212.56 86.31" stroke="#17183A" stroke-width="0.6"/>
  <path d="M219.19 88.73 216.33 89.63" stroke="#17183A" stroke-width="0.6"/>
  <path d="M220.46 93.08 217.56 93.86" stroke="#17183A" stroke-width="0.6"/>
  <path d="M221.53 97.49 218.61 98.14" stroke="#17183A" stroke-width="0.6"/>
  <path d="M222.42 101.94 217 102.9" stroke="#17183A" stroke-width="0.6"/>
  <path d="M223.11 106.43 220.14 106.82" stroke="#17183A" stroke-width="0.6"/>
  <path d="M223.6 110.94 220.62 111.2" stroke="#17183A" stroke-width="0.6"/>
  <path d="M223.9 115.46 220.9 115.59" stroke="#17183A" stroke-width="0.6"/>
  <path d="M224 120 216 120" stroke="#17183A" stroke-width="1"/>
  <path d="M223.9 124.54 220.9 124.41" stroke="#17183A" stroke-width="0.6"/>
  <path d="M223.6 129.06 220.62 128.8" stroke="#17183A" stroke-width="0.6"/>
  <path d="M223.11 133.57 220.14 133.18" stroke="#17183A" stroke-width="0.6"/>
  <path d="M222.42 138.06 217 137.1" stroke="#17183A" stroke-width="0.6"/>
  <path d="M221.53 142.51 218.61 141.86" stroke="#17183A" stroke-width="0.6"/>
  <path d="M220.46 146.92 217.56 146.14" stroke="#17183A" stroke-width="0.6"/>
  <path d="M219.19 151.27 216.33 150.37" stroke="#17183A" stroke-width="0.6"/>
  <path d="M217.73 155.57 212.56 153.69" stroke="#17183A" stroke-width="0.6"/>
  <path d="M216.08 159.8 213.31 158.65" stroke="#17183A" stroke-width="0.6"/>
  <path d="M214.26 163.95 211.54 162.68" stroke="#17183A" stroke-width="0.6"/>
  <path d="M212.25 168.02 209.59 166.64" stroke="#17183A" stroke-width="0.6"/>
  <path d="M210.07 172 203.14 168" stroke="#17183A" stroke-width="1"/>
  <path d="M207.71 175.88 205.18 174.27" stroke="#17183A" stroke-width="0.6"/>
  <path d="M205.19 179.65 202.73 177.93" stroke="#17183A" stroke-width="0.6"/>
  <path d="M202.51 183.31 200.13 181.48" stroke="#17183A" stroke-width="0.6"/>
  <path d="M199.67 186.85 195.46 183.31" stroke="#17183A" stroke-width="0.6"/>
  <path d="M196.68 190.26 194.47 188.23" stroke="#17183A" stroke-width="0.6"/>
  <path d="M193.54 193.54 191.42 191.42" stroke="#17183A" stroke-width="0.6"/>
  <path d="M190.26 196.68 188.23 194.47" stroke="#17183A" stroke-width="0.6"/>
  <path d="M186.85 199.67 183.31 195.46" stroke="#17183A" stroke-width="0.6"/>
  <path d="M183.31 202.51 181.48 200.13" stroke="#17183A" stroke-width="0.6"/>
  <path d="M179.65 205.19 177.93 202.73" stroke="#17183A" stroke-width="0.6"/>
  <path d="M175.88 207.71 174.27 205.18" stroke="#17183A" stroke-width="0.6"/>
  <path d="M172 210.07 168 203.14" stroke="#17183A" stroke-width="1"/>
  <path d="M168.02 212.25 166.64 209.59" stroke="#17183A" stroke-width="0.6"/>
  <path d="M163.95 214.26 162.68 211.54" stroke="#17183A" stroke-width="0.6"/>
  <path d="M159.8 216.08 158.65 213.31" stroke="#17183A" stroke-width="0.6"/>
  <path d="M155.57 217.73 153.69 212.56" stroke="#17183A" stroke-width="0.6"/>
  <path d="M151.27 219.19 150.37 216.33" stroke="#17183A" stroke-width="0.6"/>
  <path d="M146.92 220.46 146.14 217.56" stroke="#17183A" stroke-width="0.6"/>
  <path d="M142.51 221.53 141.86 218.61" stroke="#17183A" stroke-width="0.6"/>
  <path d="M138.06 222.42 137.1 217" stroke="#17183A" stroke-width="0.6"/>
  <path d="M133.57 223.11 133.18 220.14" stroke="#17183A" stroke-width="0.6"/>
  <path d="M129.06 223.6 128.8 220.62" stroke="#17183A" stroke-width="0.6"/>
  <path d="M124.54 223.9 124.41 220.9" stroke="#17183A" stroke-width="0.6"/>
  <path d="M120 224 120 216" stroke="#17183A" stroke-width="1"/>
  <path d="M115.46 223.9 115.59 220.9" stroke="#17183A" stroke-width="0.6"/>
  <path d="M110.94 223.6 111.2 220.62" stroke="#17183A" stroke-width="0.6"/>
  <path d="M106.43 223.11 106.82 220.14" stroke="#17183A" stroke-width="0.6"/>
  <path d="M101.94 222.42 102.9 217" stroke="#17183A" stroke-width="0.6"/>
  <path d="M97.49 221.53 98.14 218.61" stroke="#17183A" stroke-width="0.6"/>
  <path d="M93.08 220.46 93.86 217.56" stroke="#17183A" stroke-width="0.6"/>
  <path d="M88.73 219.19 89.63 216.33" stroke="#17183A" stroke-width="0.6"/>
  <path d="M84.43 217.73 86.31 212.56" stroke="#17183A" stroke-width="0.6"/>
  <path d="M80.2 216.08 81.35 213.31" stroke="#17183A" stroke-width="0.6"/>
  <path d="M76.05 214.26 77.32 211.54" stroke="#17183A" stroke-width="0.6"/>
  <path d="M71.98 212.25 73.36 209.59" stroke="#17183A" stroke-width="0.6"/>
  <path d="M68 210.07 72 203.14" stroke="#17183A" stroke-width="1"/>
  <path d="M64.12 207.71 65.73 205.18" stroke="#17183A" stroke-width="0.6"/>
  <path d="M60.35 205.19 62.07 202.73" stroke="#17183A" stroke-width="0.6"/>
  <path d="M56.69 202.51 58.52 200.13" stroke="#17183A" stroke-width="0.6"/>
  <path d="M53.15 199.67 56.69 195.46" stroke="#17183A" stroke-width="0.6"/>
  <path d="M49.74 196.68 51.77 194.47" stroke="#17183A" stroke-width="0.6"/>
  <path d="M46.46 193.54 48.58 191.42" stroke="#17183A" stroke-width="0.6"/>
  <path d="M43.32 190.26 45.53 188.23" stroke="#17183A" stroke-width="0.6"/>
  <path d="M40.33 186.85 44.54 183.31" stroke="#17183A" stroke-width="0.6"/>
  <path d="M37.49 183.31 39.87 181.48" stroke="#17183A" stroke-width="0.6"/>
  <path d="M34.81 179.65 37.27 177.93" stroke="#17183A" stroke-width="0.6"/>
  <path d="M32.29 175.88 34.82 174.27" stroke="#17183A" stroke-width="0.6"/>
  <path d="M29.93 172 36.86 168" stroke="#17183A" stroke-width="1"/>
  <path d="M27.75 168.02 30.41 166.64" stroke="#17183A" stroke-width="0.6"/>
  <path d="M25.74 163.95 28.46 162.68" stroke="#17183A" stroke-width="0.6"/>
  <path d="M23.92 159.8 26.69 158.65" stroke="#17183A" stroke-width="0.6"/>
  <path d="M22.27 155.57 27.44 153.69" stroke="#17183A" stroke-width="0.6"/>
  <path d="M20.81 151.27 23.67 150.37" stroke="#17183A" stroke-width="0.6"/>
  <path d="M19.54 146.92 22.44 146.14" stroke="#17183A" stroke-width="0.6"/>
  <path d="M18.47 142.51 21.39 141.86" stroke="#17183A" stroke-width="0.6"/>
  <path d="M17.58 138.06 23 137.1" stroke="#17183A" stroke-width="0.6"/>
  <path d="M16.89 133.57 19.86 133.18" stroke="#17183A" stroke-width="0.6"/>
  <path d="M16.4 129.06 19.38 128.8" stroke="#17183A" stroke-width="0.6"/>
  <path d="M16.1 124.54 19.1 124.41" stroke="#17183A" stroke-width="0.6"/>
  <path d="M16 120 24 120" stroke="#17183A" stroke-width="1"/>
  <path d="M16.1 115.46 19.1 115.59" stroke="#17183A" stroke-width="0.6"/>
  <path d="M16.4 110.94 19.38 111.2" stroke="#17183A" stroke-width="0.6"/>
  <path d="M16.89 106.43 19.86 106.82" stroke="#17183A" stroke-width="0.6"/>
  <path d="M17.58 101.94 23 102.9" stroke="#17183A" stroke-width="0.6"/>
  <path d="M18.47 97.49 21.39 98.14" stroke="#17183A" stroke-width="0.6"/>
  <path d="M19.54 93.08 22.44 93.86" stroke="#17183A" stroke-width="0.6"/>
  <path d="M20.81 88.73 23.67 89.63" stroke="#17183A" stroke-width="0.6"/>
  <path d="M22.27 84.43 27.44 86.31" stroke="#17183A" stroke-width="0.6"/>
  <path d="M23.92 80.2 26.69 81.35" stroke="#17183A" stroke-width="0.6"/>
  <path d="M25.74 76.05 28.46 77.32" stroke="#17183A" stroke-width="0.6"/>
  <path d="M27.75 71.98 30.41 73.36" stroke="#17183A" stroke-width="0.6"/>
  <path d="M29.93 68 36.86 72" stroke="#17183A" stroke-width="1"/>
  <path d="M32.29 64.12 34.82 65.73" stroke="#17183A" stroke-width="0.6"/>
  <path d="M34.81 60.35 37.27 62.07" stroke="#17183A" stroke-width="0.6"/>
  <path d="M37.49 56.69 39.87 58.52" stroke="#17183A" stroke-width="0.6"/>
  <path d="M40.33 53.15 44.54 56.69" stroke="#17183A" stroke-width="0.6"/>
  <path d="M43.32 49.74 45.53 51.77" stroke="#17183A" stroke-width="0.6"/>
  <path d="M46.46 46.46 48.58 48.58" stroke="#17183A" stroke-width="0.6"/>
  <path d="M49.74 43.32 51.77 45.53" stroke="#17183A" stroke-width="0.6"/>
  <path d="M53.15 40.33 56.69 44.54" stroke="#17183A" stroke-width="0.6"/>
  <path d="M56.69 37.49 58.52 39.87" stroke="#17183A" stroke-width="0.6"/>
  <path d="M60.35 34.81 62.07 37.27" stroke="#17183A" stroke-width="0.6"/>
  <path d="M64.12 32.29 65.73 34.82" stroke="#17183A" stroke-width="0.6"/>
  <path d="M68 29.93 72 36.86" stroke="#17183A" stroke-width="1"/>
  <path d="M71.98 27.75 73.36 30.41" stroke="#17183A" stroke-width="0.6"/>
  <path d="M76.05 25.74 77.32 28.46" stroke="#17183A" stroke-width="0.6"/>
  <path d="M80.2 23.92 81.35 26.69" stroke="#17183A" stroke-width="0.6"/>
  <path d="M84.43 22.27 86.31 27.44" stroke="#17183A" stroke-width="0.6"/>
  <path d="M88.73 20.81 89.63 23.67" stroke="#17183A" stroke-width="0.6"/>
  <path d="M93.08 19.54 93.86 22.44" stroke="#17183A" stroke-width="0.6"/>
  <path d="M97.49 18.47 98.14 21.39" stroke="#17183A" stroke-width="0.6"/>
  <path d="M101.94 17.58 102.9 23" stroke="#17183A" stroke-width="0.6"/>
  <path d="M106.43 16.89 106.82 19.86" stroke="#17183A" stroke-width="0.6"/>
  <path d="M110.94 16.4 111.2 19.38" stroke="#17183A" stroke-width="0.6"/>
  <path d="M115.46 16.1 115.59 19.1" stroke="#17183A" stroke-width="0.6"/>
  <circle cx="120" cy="120" r="84" stroke="#17183A" stroke-width=".6"/>
  <path d="M112 120h5M123 120h5M120 112v5M120 123v5" stroke="#17183A" stroke-width=".7"/>
</svg>
